<svg id="Capa_1" enable-background="new 0 0 510 510" height="512" viewBox="0 0 510 510" width="512" xmlns="http://www.w3.org/2000/svg"><g><path d="m447.016 173.078c-10.768-4.16-30.575-8.971-53.258-12.846l42.242-32.902v-67.33h-30v52.67l-53.955 42.026c-11.11-1.033-22.059-1.662-32.232-1.73-.956-2.123-1.975-4.196-3.053-6.217 16.535-6.661 28.24-22.858 28.24-41.749 0-24.813-20.186-45-45-45 0-16.542 13.458-30 30-30v-30c-33.084 0-60 26.916-60 60h-30c0-33.084-26.916-60-60-60v30c16.542 0 30 13.458 30 30-24.814 0-45 20.187-45 45 0 18.891 11.705 35.088 28.239 41.75-1.077 2.02-2.097 4.094-3.052 6.217-9.901.066-20.535.663-31.338 1.646l-53.849-41.943v-52.67h-30v67.33l42.062 32.764c-23.024 3.897-43.18 8.775-54.078 12.984-38.571 14.899-57.829 58.407-42.927 96.987 14.86 38.472 58.133 57.946 96.99 42.926 14.189-5.484 40.725-20.652 66.689-38.677-12.323 15.295-19.399 34.366-18.679 54.488l-73.329 16.944-28.3 43.47 25.141 16.367 21.7-33.331 59.505-13.749c2.834 11.107 6.822 22.821 11.68 34.159l-44.716 33.532-13.45 53.806h-33.288v30h56.712l16.549-66.195 32.042-24.027c17.781 29.261 38.723 45.222 59.697 45.222s41.915-15.961 59.697-45.223l32.042 24.028 16.549 66.195h56.712v-30h-33.288l-13.451-53.806-44.716-33.531c4.889-11.412 8.898-23.205 11.736-34.377l60.448 13.967 21.7 33.331 25.141-16.367-28.3-43.47-74.32-17.173c.66-19.682-6.193-38.754-18.688-54.26 25.966 18.024 52.499 33.192 66.689 38.677 38.67 14.951 82.055-4.258 96.991-42.927 14.903-38.579-4.355-82.086-42.926-96.986zm-224.143 75.457c-18.65-28.431-16.799-73.476 4.061-98.535h56.134c20.821 25.018 22.735 70.064 4.069 98.521-8.558 13.015-20.272 20.479-32.137 20.479s-23.579-7.464-32.127-20.465zm-12.873-158.535h90c8.272 0 15 6.729 15 15s-6.728 15-15 15c-9.728 0-80.124 0-90 0-8.271 0-15-6.729-15-15s6.729-15 15-15zm-103.77 195.009c-23.192 8.967-49.226-2.55-58.188-25.754-8.941-23.148 2.611-49.253 25.753-58.192 16.269-6.284 66.728-16.326 107.594-17.896-2.575 17.124-1.661 35.649 3.447 53.25-29.967 22.943-64.865 43.281-78.606 48.592zm148.77 149.991c-24.725 0-60-70.56-60-109.09 0-15.523 7.651-30.611 20.486-41.303 24.128 19.192 54.896 19.195 79.026-.001 12.837 10.692 20.488 25.781 20.488 41.304 0 38.53-35.275 109.09-60 109.09zm206.958-175.745c-8.96 23.196-34.988 34.725-58.189 25.754-13.739-5.31-48.638-25.647-78.604-48.593 5.112-17.618 6.019-36.148 3.446-53.251 40.87 1.57 91.325 11.613 107.594 17.897 23.142 8.94 34.694 35.045 25.753 58.193z"/></g></svg>